<svg xmlns="http://www.w3.org/2000/svg" viewBox="0 0 512 512" width="24" height="24">
  <rect width="512" height="512" fill="#f0f0f0"/>
  <g fill="#d80027">
    <rect width="512" height="39.4" y="39.4"/>
    <rect width="512" height="39.4" y="118.2"/>
    <rect width="512" height="39.4" y="197"/>
    <rect width="512" height="39.4" y="275.8"/>
    <rect width="512" height="39.4" y="354.6"/>
    <rect width="512" height="39.4" y="433.4"/>
  </g>
  <rect width="275.8" height="275.8" fill="#2e3192"/>
  <g fill="#f0f0f0">
    <path d="M30,51.3l3.2,9.8H44l-8.8,6.4l3.2,9.8L30,71l-8.8,6.4l3.2-9.8L16,61.1h10.8L30,51.3z"/>
    <path d="M90,51.3l3.2,9.8h10.8l-8.8,6.4l3.2,9.8L90,71l-8.8,6.4l3.2-9.8l-8.8-6.4h10.8L90,51.3z"/>
    <path d="M150,51.3l3.2,9.8h10.8l-8.8,6.4l3.2,9.8L150,71l-8.8,6.4l3.2-9.8l-8.8-6.4h10.8L150,51.3z"/>
    <path d="M210,51.3l3.2,9.8H224l-8.8,6.4l3.2,9.8L210,71l-8.8,6.4l3.2-9.8l-8.8-6.4h10.8L210,51.3z"/>
    <path d="M60,88.7l3.2,9.8H74l-8.8,6.4l3.2,9.8L60,108.3l-8.8,6.4l3.2-9.8l-8.8-6.4h10.8L60,88.7z"/>
    <path d="M120,88.7l3.2,9.8h10.8l-8.8,6.4l3.2,9.8l-8.4-6.4l-8.8,6.4l3.2-9.8l-8.8-6.4h10.8l3.2-9.8z"/>
    <path d="M180,88.7l3.2,9.8h10.8l-8.8,6.4l3.2,9.8l-8.4-6.4l-8.8,6.4l3.2-9.8l-8.8-6.4h10.8l3.2-9.8z"/>
    <path d="M240,88.7l3.2,9.8H254l-8.8,6.4l3.2,9.8l-8.4-6.4l-8.8,6.4l3.2-9.8l-8.8-6.4h10.8l3.2-9.8z"/>
    <path d="M30,126.1l3.2,9.8H44l-8.8,6.4l3.2,9.8l-8.4-6.4l-8.8,6.4l3.2-9.8l-8.8-6.4h10.8l3.2-9.8z"/>
    <path d="M90,126.1l3.2,9.8h10.8l-8.8,6.4l3.2,9.8l-8.4-6.4l-8.8,6.4l3.2-9.8l-8.8-6.4h10.8l3.2-9.8z"/>
    <path d="M150,126.1l3.2,9.8h10.8l-8.8,6.4l3.2,9.8l-8.4-6.4l-8.8,6.4l3.2-9.8l-8.8-6.4h10.8l3.2-9.8z"/>
    <path d="M210,126.1l3.2,9.8H224l-8.8,6.4l3.2,9.8l-8.4-6.4l-8.8,6.4l3.2-9.8l-8.8-6.4h10.8l3.2-9.8z"/>
    <path d="M60,163.5l3.2,9.8H74l-8.8,6.4l3.2,9.8l-8.4-6.4l-8.8,6.4l3.2-9.8l-8.8-6.4h10.8l3.2-9.8z"/>
    <path d="M120,163.5l3.2,9.8h10.8l-8.8,6.4l3.2,9.8l-8.4-6.4l-8.8,6.4l3.2-9.8l-8.8-6.4h10.8l3.2-9.8z"/>
    <path d="M180,163.5l3.2,9.8h10.8l-8.8,6.4l3.2,9.8l-8.4-6.4l-8.8,6.4l3.2-9.8l-8.8-6.4h10.8l3.2-9.8z"/>
    <path d="M240,163.5l3.2,9.8H254l-8.8,6.4l3.2,9.8l-8.4-6.4l-8.8,6.4l3.2-9.8l-8.8-6.4h10.8l3.2-9.8z"/>
    <path d="M30,200.9l3.2,9.8H44l-8.8,6.4l3.2,9.8l-8.4-6.4l-8.8,6.4l3.2-9.8l-8.8-6.4h10.8l3.2-9.8z"/>
    <path d="M90,200.9l3.2,9.8h10.8l-8.8,6.4l3.2,9.8l-8.4-6.4l-8.8,6.4l3.2-9.8l-8.8-6.4h10.8l3.2-9.8z"/>
    <path d="M150,200.9l3.2,9.8h10.8l-8.8,6.4l3.2,9.8l-8.4-6.4l-8.8,6.4l3.2-9.8l-8.8-6.4h10.8l3.2-9.8z"/>
    <path d="M210,200.9l3.2,9.8H224l-8.8,6.4l3.2,9.8l-8.4-6.4l-8.8,6.4l3.2-9.8l-8.8-6.4h10.8l3.2-9.8z"/>
    <path d="M60,238.3l3.2,9.8H74l-8.8,6.4l3.2,9.8l-8.4-6.4l-8.8,6.4l3.2-9.8l-8.8-6.4h10.8l3.2-9.8z"/>
    <path d="M120,238.3l3.2,9.8h10.8l-8.8,6.4l3.2,9.8l-8.4-6.4l-8.8,6.4l3.2-9.8l-8.8-6.4h10.8l3.2-9.8z"/>
    <path d="M180,238.3l3.2,9.8h10.8l-8.8,6.4l3.2,9.8l-8.4-6.4l-8.8,6.4l3.2-9.8l-8.8-6.4h10.8l3.2-9.8z"/>
    <path d="M240,238.3l3.2,9.8H254l-8.8,6.4l3.2,9.8l-8.4-6.4l-8.8,6.4l3.2-9.8l-8.8-6.4h10.8l3.2-9.8z"/>
  </g>
</svg> 